<svg xmlns="http://www.w3.org/2000/svg" width="256" height="256"><path fill="#f4f2ef" stroke="#231f20" stroke-miterlimit="10" stroke-width=".2924" d="M-.5-.5h257v257H-.5z"/><path fill="#c30013" d="M103.9 191H15.5c-2.3 0-4.1-1.9-4.1-4.1v-33.7H108v33.7c0 2.2-1.8 4.1-4.1 4.1z"/><path fill="#fff" d="M51.5 169.4c0 1.7-.5 2.9-1.6 3.8s-2.5 1.3-4.5 1.3H44v5.5h-3.3v-15.5h5c1.9 0 3.3.4 4.3 1.2 1 .9 1.5 2.1 1.5 3.7zm-7.4 2.5h1.1c1 0 1.8-.2 2.3-.6s.8-1 .8-1.7c0-.8-.2-1.3-.6-1.7s-1.1-.6-2-.6h-1.5v4.6zm23.2.3c0 2.6-.7 4.5-2.2 5.9s-3.6 2-6.3 2h-4.4v-15.5h4.9c2.5 0 4.5.7 5.9 2s2.1 3.2 2.1 5.6zm-3.4.1c0-3.3-1.5-5-4.4-5h-1.8v10.1h1.4c3.2 0 4.8-1.7 4.8-5.1zm9.9 7.8h-3.2v-15.5h8.9v2.7h-5.7v4h5.3v2.7h-5.3z"/><path fill="#e9e9e0" d="M17.7 65c-3.5 0-6.3 2.8-6.3 6.3v81.8H108v-61L80.8 65z"/><path fill="#d9d7ca" d="M108 92.2H80.8V65z"/><path fill="#c30013" d="M31 139.2c-3.3-3.3.3-7.8 10-12.6l6.1-3 2.4-5.2c1.3-2.9 3.3-7.5 4.3-10.4l2-5.2-1.5-3.8c-1.7-4.7-2.2-11.8-1.2-14.3 1.4-3.4 6.1-3.1 7.9.6 1.4 2.9 1.3 8.1-.4 14.7l-1.4 5.4 1.2 2.1c.7 1.2 2.7 3.9 4.4 6.1l3.3 4.1 4.1-.5c13-1.7 17.4 1.2 17.4 5.3 0 5.2-10.2 5.6-18.7-.4-1.9-1.4-3.2-2.7-3.2-2.7s-5.4 1.1-8 1.8c-2.7.7-4.1 1.2-8.1 2.5 0 0-1.4 2-2.3 3.5-3.4 5.5-7.4 10.1-10.2 11.7-3.1 1.9-6.4 2-8.1.3zm5.2-1.8c1.9-1.1 5.6-5.6 8.2-9.7l1.1-1.7-4.8 2.4c-7.4 3.7-10.8 7.2-9 9.3.9 1.3 2.1 1.2 4.5-.3zm48-13.5c1.8-1.3 1.6-3.8-.5-4.9-1.6-.8-2.9-1-7-.9-2.5.2-6.6.7-7.3.8 0 0 2.3 1.6 3.2 2.1 1.3.8 4.6 2.2 6.9 2.9 2.3.8 3.7.7 4.7 0zm-19.3-8c-1.1-1.2-3-3.6-4.1-5.4-1.5-2-2.3-3.5-2.3-3.5s-1.1 3.6-2.1 5.8l-2.9 7.2-.8 1.6s4.5-1.5 6.7-2.1c2.4-.6 7.3-1.6 7.3-1.6zm-6.2-25c.3-2.3.4-4.7-.4-5.9-2.1-2.3-4.6-.4-4.2 5.1.1 1.8.6 5 1.2 6.9l1.1 3.5.8-2.6c.4-1.5 1.1-4.6 1.5-7z"/><path fill="#659c35" d="M240.5 191h-88.4c-2.3 0-4.1-1.9-4.1-4.1v-33.7h96.6v33.7c0 2.2-1.8 4.1-4.1 4.1z"/><path fill="#fff" d="M164.9 178.8v-15.5h3.3v15.5zm17.5 0h-3.2v-6.9c0-.9-.1-1.5-.4-1.9s-.7-.6-1.4-.6c-.8 0-1.4.3-1.8.9s-.6 1.6-.6 3v5.6h-3.2V167h2.5l.4 1.5h.2c.3-.5.8-1 1.4-1.3s1.3-.5 2.1-.5c1.8 0 3 .6 3.6 1.7h.3c.3-.6.8-1 1.4-1.3s1.3-.5 2.1-.5c1.3 0 2.4.3 3.1 1s1 1.8 1 3.3v7.7h-3.2v-6.9c0-.9-.1-1.5-.4-1.9s-.7-.6-1.4-.6c-.8 0-1.4.3-1.8.8-.4.6-.6 1.5-.6 2.7v6.1zm18.3 0-.6-1.6h-.1c-.5.7-1.1 1.2-1.7 1.4-.6.3-1.3.4-2.3.4-1.1 0-2-.3-2.7-1s-1-1.6-1-2.8c0-1.3.4-2.2 1.3-2.8s2.2-.9 4-1l2.1-.1v-.5c0-1.2-.6-1.8-1.8-1.8-.9 0-2.1.3-3.3.9l-1.1-2.2c1.4-.7 2.9-1.1 4.5-1.1s2.8.3 3.7 1c.8.7 1.3 1.7 1.3 3.2v7.9h-2.3zm-1-5.5h-1.3c-.9 0-1.6.2-2.1.5s-.7.8-.7 1.4c0 .9.5 1.4 1.6 1.4.8 0 1.4-.2 1.8-.6s.7-1 .7-1.7zm16.9-6.4v1.6l-1.9.5c.3.5.5 1.1.5 1.8 0 1.3-.4 2.3-1.3 3s-2.1 1.1-3.7 1.1h-.6l-.5-.1c-.3.3-.5.5-.5.8 0 .5.6.7 1.8.7h2c1.3 0 2.3.3 3 .8.7.6 1 1.4 1 2.5 0 1.4-.6 2.5-1.7 3.2-1.2.8-2.8 1.1-5 1.1-1.7 0-2.9-.3-3.8-.9s-1.3-1.4-1.3-2.4c0-.7.2-1.3.7-1.8.4-.5 1.1-.8 2-1-.3-.1-.6-.4-.9-.7-.2-.3-.4-.7-.4-1 0-.5.1-.8.4-1.1s.6-.6 1.1-.9c-.6-.3-1.1-.7-1.5-1.3s-.5-1.3-.5-2.1c0-1.3.4-2.3 1.3-3 .8-.7 2-1.1 3.6-1.1.3 0 .7 0 1.2.1s.7.1.9.1h4.1zm-9.2 13.6c0 .4.2.8.6 1.1s1 .4 1.8.4c1.2 0 2.1-.2 2.7-.5s1-.8 1-1.3c0-.4-.2-.8-.6-.9-.4-.2-1-.3-1.8-.3h-1.7c-.6 0-1.1.1-1.5.4-.3.2-.5.6-.5 1.1zm1.2-9.7c0 .6.1 1.2.4 1.5.3.4.7.6 1.3.6s1.1-.2 1.3-.6c.3-.4.4-.9.4-1.5 0-1.4-.6-2.1-1.8-2.1-1 0-1.6.7-1.6 2.1zm15.3 8.2c-1.9 0-3.4-.5-4.5-1.6s-1.6-2.5-1.6-4.5.5-3.5 1.5-4.6 2.4-1.6 4.1-1.6 3 .5 3.9 1.4c.9 1 1.4 2.3 1.4 4v1.6H221c0 .9.3 1.6.8 2.2.5.5 1.2.8 2.1.8.7 0 1.4-.1 2-.2s1.3-.4 2-.7v2.5c-.6.3-1.2.5-1.8.6-.5 0-1.2.1-2.2.1zm-.4-10c-.7 0-1.2.2-1.6.7-.4.4-.6 1.1-.7 1.9h4.5c0-.8-.2-1.4-.6-1.9s-.9-.7-1.6-.7z"/><path fill="#e9e9e0" d="M154.3 65c-3.5 0-6.3 2.8-6.3 6.3v81.8h96.6v-61L217.4 65z"/><path fill="#d9d7ca" d="M244.6 92.2h-27.2V65z"/><path fill="#88c057" d="m148 153.2 38.4-32.9 12.3 13 23.6-26.7 22.3 21.7v24.8H148z"/><circle cx="175.6" cy="97.6" r="10.4" fill="#f3d55b"/><path fill="#7a7a7a" d="m144.1 87.3 8.6-13 7.9 36.9-37.5 7.6 8.8-12.8s-17.8-16.2-46.1-7c0 0 23.5-28 58.3-11.7z"/></svg>